<?xml version="1.0" encoding="UTF-8" standalone="no"?>
<svg
   version="1.1"
   x="0px"
   y="0px"
   viewBox="0 0 100 125"
   enable-background="new 0 0 100 100"
   xml:space="preserve"
   id="svg2"
   sodipodi:docname="save_switch_icon.svg"
   inkscape:version="1.3.2 (091e20e, 2023-11-25, custom)"
   xmlns:inkscape="http://www.inkscape.org/namespaces/inkscape"
   xmlns:sodipodi="http://sodipodi.sourceforge.net/DTD/sodipodi-0.dtd"
   xmlns:xlink="http://www.w3.org/1999/xlink"
   xmlns="http://www.w3.org/2000/svg"
   xmlns:svg="http://www.w3.org/2000/svg"><defs
     id="defs2"><linearGradient
       id="linearGradient14"
       inkscape:collect="always"><stop
         style="stop-color:#ffffff;stop-opacity:1;"
         offset="0"
         id="stop13" /><stop
         style="stop-color:#848484;stop-opacity:1;"
         offset="1"
         id="stop14" /></linearGradient><linearGradient
       id="linearGradient11"
       inkscape:collect="always"><stop
         style="stop-color:#ffffff;stop-opacity:1;"
         offset="0"
         id="stop11" /><stop
         style="stop-color:#848484;stop-opacity:1;"
         offset="1"
         id="stop12" /></linearGradient><linearGradient
       id="linearGradient4"
       inkscape:collect="always"><stop
         style="stop-color:#11c1ee;stop-opacity:1;"
         offset="0"
         id="stop4" /><stop
         style="stop-color:#132787;stop-opacity:1;"
         offset="1"
         id="stop5" /></linearGradient><linearGradient
       id="linearGradient2"
       inkscape:collect="always"><stop
         style="stop-color:#11c8ef;stop-opacity:1;"
         offset="0"
         id="stop2" /><stop
         style="stop-color:#1740c3;stop-opacity:1;"
         offset="1"
         id="stop3" /></linearGradient><linearGradient
       inkscape:collect="always"
       xlink:href="#linearGradient2"
       id="linearGradient3"
       x1="52.444664"
       y1="17.741936"
       x2="51.588589"
       y2="82.693985"
       gradientUnits="userSpaceOnUse" /><linearGradient
       inkscape:collect="always"
       xlink:href="#linearGradient4"
       id="linearGradient5"
       x1="50.463844"
       y1="16.979076"
       x2="49.86409"
       y2="83.674805"
       gradientUnits="userSpaceOnUse" /><linearGradient
       inkscape:collect="always"
       xlink:href="#linearGradient11"
       id="linearGradient12"
       x1="43.71352"
       y1="34.971878"
       x2="43.349255"
       y2="62.909378"
       gradientUnits="userSpaceOnUse" /><linearGradient
       inkscape:collect="always"
       xlink:href="#linearGradient14"
       id="linearGradient13"
       x1="52.041939"
       y1="52.054901"
       x2="52.089775"
       y2="80.242401"
       gradientUnits="userSpaceOnUse" /></defs><sodipodi:namedview
     id="namedview2"
     pagecolor="#ffffff"
     bordercolor="#000000"
     borderopacity="0.25"
     inkscape:showpageshadow="2"
     inkscape:pageopacity="0.0"
     inkscape:pagecheckerboard="0"
     inkscape:deskcolor="#d1d1d1"
     inkscape:zoom="5.6568543"
     inkscape:cx="1.0606602"
     inkscape:cy="71.329396"
     inkscape:window-width="2560"
     inkscape:window-height="1361"
     inkscape:window-x="-9"
     inkscape:window-y="-9"
     inkscape:window-maximized="1"
     inkscape:current-layer="svg2" /><path
     d="M74.57,34.077H59.751c-1.086,0-1.975-0.889-1.975-1.975V17.283c0-1.086-0.889-1.975-1.975-1.975H25.431  c-1.086,0-1.975,0.889-1.975,1.975v65.434c0,1.086,0.889,1.975,1.975,1.975h49.14c1.086,0,1.974-0.889,1.974-1.975V36.052  C76.544,34.966,75.656,34.077,74.57,34.077z M60.146,18.468c0-1.086,0.628-1.347,1.396-0.579l12.423,12.424  c0.768,0.768,0.508,1.396-0.578,1.396H62.12c-1.086,0-1.975-0.889-1.975-1.975V18.468z"
     id="path2"
     style="fill:none;fill-opacity:1;stroke:url(#linearGradient5);stroke-opacity:1;stroke-width:4;stroke-dasharray:none"
     inkscape:label="FileOutline" /><path
     d="M74.57,34.077H59.751c-1.086,0-1.975-0.889-1.975-1.975V17.283c0-1.086-0.889-1.975-1.975-1.975H25.431  c-1.086,0-1.975,0.889-1.975,1.975v65.434c0,1.086,0.889,1.975,1.975,1.975h49.14c1.086,0,1.974-0.889,1.974-1.975V36.052  C76.544,34.966,75.656,34.077,74.57,34.077z M60.146,18.468c0-1.086,0.628-1.347,1.396-0.579l12.423,12.424  c0.768,0.768,0.508,1.396-0.578,1.396H62.12c-1.086,0-1.975-0.889-1.975-1.975V18.468z"
     id="path1"
     style="fill:url(#linearGradient3);fill-opacity:1;stroke:none"
     inkscape:label="FileFill" /><g
     id="g14"
     transform="matrix(1.6923916,0,0,1.6923916,-33.517141,-35.668585)"><g
       id="g5"
       style="display:inline;fill:none"><path
         id="path1-9"
         style="fill:none;fill-opacity:1;stroke:url(#linearGradient13);stroke-width:2;stroke-dasharray:none;stroke-opacity:1"
         inkscape:label="Swap_arrow_2"
         d="m 61.331413,53.228607 c -1.162221,1.025364 -0.93009,1.799295 -0.959424,3.342371 v 10.510726 c -2.74059,-5.42e-4 -5.48118,-0.0011 -8.22177,-0.0017 1.099295,-1.709546 0.401885,-4.198434 -1.385473,-5.138606 -1.530161,-0.910406 -3.605954,-0.44609 -4.714214,0.91555 -1.859552,1.886971 -3.776286,3.721629 -5.6004,5.641051 -1.222755,1.473192 -0.975563,3.834578 0.47511,5.06714 1.930357,1.916196 3.804384,3.894615 5.769273,5.772719 1.683528,1.377067 4.494322,0.812894 5.504488,-1.118786 0.6626,-1.140489 0.633365,-2.641682 -0.08131,-3.751508 3.013868,-0.02551 6.031206,0.05071 9.042971,-0.0374 3.367916,-0.297662 6.262161,-3.192752 6.56148,-6.559853 0.08833,-3.105325 0.01275,-6.216216 0.03866,-9.323643 -0.09569,-1.484556 0.30952,-3.121847 -0.525528,-4.460939 -0.722507,-1.286227 -2.203426,-1.813213 -3.661193,-1.82242 -0.550074,-0.01362 -1.133822,0.0235 -2.242667,0.965263 z"
         sodipodi:nodetypes="ccccccccccccccccc" /><path
         id="path2-3"
         style="fill:none;fill-opacity:1;stroke:url(#linearGradient12);stroke-width:2;stroke-dasharray:none;stroke-opacity:1"
         inkscape:label="Swap_arrow_1"
         d="m 50.187467,34.823941 c -2.165962,-0.0072 -3.996796,2.174761 -3.581607,4.308251 0.07522,0.477465 0.251994,0.937988 0.508199,1.347468 -3.013326,0.02552 -6.030122,-0.05074 -9.041345,0.0374 -3.353618,0.298439 -6.243567,3.170248 -6.554975,6.524079 -0.102965,2.644688 -0.01433,5.296605 -0.0439,7.944025 0.0416,1.555944 -0.08654,3.122549 0.06992,4.671579 0.355226,1.978419 2.505588,3.36355 4.452375,2.860383 1.770401,-0.358479 3.030667,-2.150397 2.866887,-3.933311 0.0043,-3.569483 -0.0087,-7.156329 0.0065,-10.71497 2.740047,0 5.480096,0 8.220143,0 -1.192861,1.86765 -0.219387,4.654507 1.883072,5.363014 1.501731,0.574283 3.277435,0.04029 4.274052,-1.206764 1.841002,-1.891386 3.756322,-3.71626 5.551093,-5.649048 1.205996,-1.538154 0.889471,-3.933374 -0.613001,-5.161489 -1.908845,-1.872279 -3.746591,-3.824067 -5.699771,-5.646806 -0.651267,-0.4991 -1.477767,-0.764884 -2.297645,-0.743812 z" /></g><g
       id="g6"
       style="display:inline"><path
         id="path5"
         style="fill:#f3f3f3;fill-opacity:1;stroke-width:0.446328"
         inkscape:label="Swap_arrow_2"
         d="m 61.331413,53.228607 c -1.162221,1.025364 -0.93009,1.799295 -0.959424,3.342371 v 10.510726 c -2.74059,-5.42e-4 -5.48118,-0.0011 -8.22177,-0.0017 1.099295,-1.709546 0.401885,-4.198434 -1.385473,-5.138606 -1.530161,-0.910406 -3.605954,-0.44609 -4.714214,0.91555 -1.859552,1.886971 -3.776286,3.721629 -5.6004,5.641051 -1.222755,1.473192 -0.975563,3.834578 0.47511,5.06714 1.930357,1.916196 3.804384,3.894615 5.769273,5.772719 1.683528,1.377067 4.494322,0.812894 5.504488,-1.118786 0.6626,-1.140489 0.633365,-2.641682 -0.08131,-3.751508 3.013868,-0.02551 6.031206,0.05071 9.042971,-0.0374 3.367916,-0.297662 6.262161,-3.192752 6.56148,-6.559853 0.08833,-3.105325 0.01275,-6.216216 0.03866,-9.323643 -0.09569,-1.484556 0.30952,-3.121847 -0.525528,-4.460939 -0.722507,-1.286227 -2.203426,-1.813213 -3.661193,-1.82242 -0.550074,-0.01362 -1.133822,0.0235 -2.242667,0.965263 z"
         sodipodi:nodetypes="ccccccccccccccccc" /><path
         id="path6"
         style="fill:#f3f3f3;fill-opacity:1;stroke-width:0.446328"
         inkscape:label="Swap_arrow_1"
         d="m 50.187467,34.823941 c -2.165962,-0.0072 -3.996796,2.174761 -3.581607,4.308251 0.07522,0.477465 0.251994,0.937988 0.508199,1.347468 -3.013326,0.02552 -6.030122,-0.05074 -9.041345,0.0374 -3.353618,0.298439 -6.243567,3.170248 -6.554975,6.524079 -0.102965,2.644688 -0.01433,5.296605 -0.0439,7.944025 0.0416,1.555944 -0.08654,3.122549 0.06992,4.671579 0.355226,1.978419 2.505588,3.36355 4.452375,2.860383 1.770401,-0.358479 3.030667,-2.150397 2.866887,-3.933311 0.0043,-3.569483 -0.0087,-7.156329 0.0065,-10.71497 2.740047,0 5.480096,0 8.220143,0 -1.192861,1.86765 -0.219387,4.654507 1.883072,5.363014 1.501731,0.574283 3.277435,0.04029 4.274052,-1.206764 1.841002,-1.891386 3.756322,-3.71626 5.551093,-5.649048 1.205996,-1.538154 0.889471,-3.933374 -0.613001,-5.161489 -1.908845,-1.872279 -3.746591,-3.824067 -5.699771,-5.646806 -0.651267,-0.4991 -1.477767,-0.764884 -2.297645,-0.743812 z" /></g></g></svg>
